<?xml version="1.0" encoding="utf-8"?>
<!-- Generator: Adobe Illustrator 22.0.1, SVG Export Plug-In . SVG Version: 6.00 Build 0)  -->
<svg version="1.1" xmlns="http://www.w3.org/2000/svg" xmlns:xlink="http://www.w3.org/1999/xlink" x="0px" y="0px"
	 viewBox="0 0 94.5 96" style="enable-background:new 0 0 94.5 96;" xml:space="preserve">
<style type="text/css">
	.st0{fill:none;stroke:#FFFFFF;stroke-width:2;stroke-miterlimit:100;}
	.st1{enable-background:new    ;}
	.st2{fill:#FF0D21;stroke:#FF0D21;stroke-miterlimit:100;}
	.st3{fill-rule:evenodd;clip-rule:evenodd;fill:#FFFFFF;}
	.st4{fill:#FFFFFF;}
	.st5{fill-rule:evenodd;clip-rule:evenodd;}
	.st6{fill:none;stroke:#FFFFFF;stroke-width:0.75;stroke-miterlimit:100;}
	.st7{fill-rule:evenodd;clip-rule:evenodd;fill:#FF0D21;}
	.st8{fill:#FF0D21;}
</style>
<g id="head_xA0_Image_1_">
	<path class="st0" d="M148,32.3"/>
</g>
<g id="eye_1_" class="st1">
</g>
<g id="pupil_1_" class="st1">
</g>
<g id="eyebrow_xA0_Image_1_">
	<g>
		<ellipse class="st2" cx="47.3" cy="47.4" rx="41.8" ry="40.7"/>
		<path class="st2" d="M9,30.9C8.4,32,8,33,7.8,33.7c-0.3,0.8-0.4,1.4-0.6,1.9C7,36.4,7,36.6,6.7,38.1c-0.4,2-0.4,1.9-0.5,2.4
			c-0.2,1.1-0.2,2-0.3,2.8c-0.1,1.4,0,3.6,0,3.6s-0.1,1.3,0,2.1c0,1.1,0.1,2,0.2,3C6.2,53.2,6.3,54,6.4,55c0.3,1.9,0.8,3.3,1.2,4.6
			C8,61,8.4,62.2,9.1,63.7c0.4,0.9,0.9,1.7,1.7,3.2c1,1.8,1.6,2.6,1.7,2.9c0.5,0.7,0.9,1.2,1.4,1.9c0.5,0.7,1.1,1.4,1.9,2.3
			c0.5,0.5,1.2,1.3,2.2,2.3c0.9,0.9,1.6,1.4,2.2,1.9c0.5,0.4,1.3,1.1,2.4,1.8c1.1,0.8,1.9,1.2,2.8,1.8c1,0.6,2,1.2,3.5,1.9
			c1.5,0.7,2.8,1.2,3,1.3c1.3,0.5,2.3,0.8,3.2,1c0.5,0.2,1.2,0.3,2.2,0.6c1.6,0.4,2.9,0.5,3.2,0.6c1.6,0.2,2.7,0.3,3.9,0.3
			c1,0,2.5,0.1,4.5,0c1.5-0.1,2.6-0.2,4.3-0.5c2.2-0.3,3.4-0.5,5-0.9c1.7-0.4,2.9-0.9,3.8-1.2c1.7-0.6,3-1.2,3.9-1.7
			c1.6-0.8,2.8-1.3,4.2-2.3c1.1-0.7,1.9-1.4,3-2.3c1.1-0.9,1.8-1.6,3.1-2.8c1.4-1.3,2.2-2,2.8-2.7c1.2-1.3,2-2.4,2.8-3.4
			c0.8-1.2,1.7-2.4,2.6-4.1c1.2-2.2,1.8-4.1,2.2-5.1c0.5-1.5,0.7-2.9,1.2-5.6c0.5-2.9,0.8-4.4,0.9-5.9c0-1-0.1-2.6-0.4-5.7
			c-0.1-1.2-0.6-4.6-0.7-5.2c-0.4-1.7-0.5-2.5-0.9-3.3c-0.8-1.7-1.8-2.3-1.9-3.8c0-0.6,0.1-1.1,0.3-1.7c0.6-1.7,1-3.5,1.6-5.2
			c1.2-3.1,0.6-2.6,2-6.7c0.7-2.1,1.2-4.3,1.9-6.4c0.1-0.3,0.3-1.1,0.3-2.2c0-0.5-0.2-1.5-0.9-2.5c-0.3-0.4-0.7-1.1-1.6-1.5
			c-0.8-0.4-1.6-0.4-2.2-0.4c-1.2,0-2.1,0.4-2.6,0.6c0,0-2.3,0.9-6.6,2.2c-1.8,0.6-1.5,0.3-3.6,0.9c-5,1.5-6,2.6-8.6,2.3
			c-0.9-0.1-1.6-0.3-3-0.7c-2.1-0.6-2.8-1.1-4.7-1.7c-1.4-0.4-2.4-0.5-3.6-0.7c-2.1-0.3-3.9-0.3-6-0.3c-1,0-1.5,0-2,0
			c-2.6,0.1-4.6,0.5-6.3,0.9c-2.3,0.5-4,1-4.4,1.2c-2.2,0.7-2.7,1.5-4.2,1.6c-1.3,0.1-2.2-0.4-3.6-1c-0.2-0.1,0.1,0.1-6.8-1.9
			c-3.2-0.9-6.5-1.7-9.7-2.8c-0.1,0-0.5-0.2-1.1-0.3C8.6,4.5,7.7,4.3,6.6,4.6C6.2,4.7,5.2,4.9,4.5,5.8C4.3,5.9,3.8,6.6,3.6,8.1
			C3.4,9.9,3.9,11.2,4.1,12c0.6,1.9,1,4,1.7,5.9C6.7,20.2,7.8,24,9,30.9z"/>
	</g>
	<g id="eye_2_">
		<g>
			<path class="st3" d="M47.5,52.1c-5.9,0-10.7-5-10.7-11.3c0-6.2,4.8-11.3,10.7-11.3s10.7,5,10.7,11.3C58.3,47,53.5,52.1,47.5,52.1
				z"/>
		</g>
		<g>
			<path class="st4" d="M47.5,31.6c4.8,0,8.7,4.2,8.7,9.3s-3.9,9.3-8.7,9.3c-4.8,0-8.7-4.2-8.7-9.3S42.7,31.6,47.5,31.6 M47.5,27.6
				c-7,0-12.7,5.9-12.7,13.3s5.7,13.3,12.7,13.3c7,0,12.7-5.9,12.7-13.3S54.6,27.6,47.5,27.6L47.5,27.6z"/>
		</g>
	</g>
	<g id="pupil">
		<g>
			<circle class="st5" cx="47.5" cy="40.3" r="2.6"/>
		</g>
		<g>
			<path d="M47.5,39.7c0.3,0,0.6,0.3,0.6,0.6s-0.3,0.6-0.6,0.6c-0.3,0-0.6-0.3-0.6-0.6S47.2,39.7,47.5,39.7 M47.5,35.7
				c-2.5,0-4.6,2.1-4.6,4.6s2.1,4.6,4.6,4.6c2.5,0,4.6-2.1,4.6-4.6S50.1,35.7,47.5,35.7L47.5,35.7z"/>
		</g>
	</g>
	<path class="st6" d="M29.5,22.6c1.2-0.9,2.9-2,5.1-2.9c0.7-0.3,3.1-1.3,6.9-1.9c2.3-0.4,7.2-1.1,13.5,0.3c4.6,1,8.2,2.8,10.7,4.3"
		/>
	<g id="eye_4_">
		<g>
			<path class="st7" d="M52.1,25.6c-2.4-2.4-6.4-2.4-8.9,0.1S54.6,28,52.1,25.6z"/>
		</g>
		<g>
			<path class="st8" d="M47.8,23.8c-1.6,0-3.3,0.6-4.6,1.9c-1.2,1.2,1.4,1.8,4.1,1.8c2.9,0,6-0.7,4.8-1.9
				C50.9,24.4,49.4,23.8,47.8,23.8L47.8,23.8z"/>
		</g>
	</g>
</g>
</svg>
