<svg xmlns="http://www.w3.org/2000/svg" id="deko" viewBox="0 0 94.5 96">
  <style>
    .st0{fill:#ff0d21;stroke:#ff0d21;stroke-miterlimit:100}
  </style>
  <path id="right_ear" d="M89.8 7.3c-.1-.1-.3-.2-.5-.3-.4-.1-.7-.1-.9 0-.6.1-9.1 2.3-20.8 5.2l17.3 17.3c2.9-11.7 5-20.3 5.2-20.9 0-.1.1-.5 0-.9-.1-.2-.2-.3-.3-.4z" class="st0"/>
  <path id="left_ear" d="M4.7 7.4c-.1.1-.2.3-.3.5-.1.4-.1.7 0 .9.1.6 2.3 9.1 5.2 20.8l17.3-17.3C15.2 9.3 6.6 7.2 6 7c-.1 0-.5-.1-.9 0-.1.2-.3.3-.4.4z" class="st0"/>
  <ellipse id="head" cx="47.3" cy="48.7" class="st0" rx="42.6" ry="41.4"/>
  <ellipse id="eye" cx="47.6" cy="42" fill="#fff" fill-rule="evenodd" clip-rule="evenodd" rx="13" ry="13.5"/>
  <circle id="pupil" cx="47.6" cy="41.5" r="4.7" fill-rule="evenodd" clip-rule="evenodd"/>
  <path id="eyebrow" fill="none" stroke="#fff" stroke-miterlimit="100" stroke-width=".5" d="M29.2 23.5c1.2-.9 3-2 5.2-3 .7-.3 3.1-1.3 7-2 2.3-.4 7.4-1.1 13.7.3 4.7 1 8.3 2.9 10.8 4.4"/>
</svg>
